<svg width="159" height="30" viewBox="0 0 159 30" fill="none" xmlns="http://www.w3.org/2000/svg">
<path d="M13.44 29.4C11.44 29.4 9.61333 29 7.96 28.2C6.30667 27.3733 4.88 26.2933 3.68 24.96C2.50667 23.6 1.6 22.0533 0.96 20.32C0.32 18.5867 0 16.8133 0 15C0 13.1067 0.333333 11.2933 1 9.56C1.69333 7.82667 2.64 6.29333 3.84 4.96C5.06667 3.62667 6.50667 2.57333 8.16 1.8C9.81333 0.999999 11.6133 0.599999 13.56 0.599999C15.56 0.599999 17.3867 1.02667 19.04 1.88C20.6933 2.70667 22.1067 3.8 23.28 5.16C24.4533 6.52 25.36 8.06667 26 9.8C26.64 11.5333 26.96 13.2933 26.96 15.08C26.96 16.9733 26.6133 18.7867 25.92 20.52C25.2533 22.2267 24.32 23.7467 23.12 25.08C21.92 26.3867 20.4933 27.44 18.84 28.24C17.1867 29.0133 15.3867 29.4 13.44 29.4ZM5.56 15C5.56 16.2267 5.73333 17.4133 6.08 18.56C6.45333 19.7067 6.97333 20.72 7.64 21.6C8.33333 22.48 9.17333 23.1867 10.16 23.72C11.1467 24.2533 12.2667 24.52 13.52 24.52C14.8 24.52 15.92 24.2533 16.88 23.72C17.8667 23.16 18.6933 22.4267 19.36 21.52C20.0267 20.6133 20.5333 19.6 20.88 18.48C21.2267 17.3333 21.4 16.1733 21.4 15C21.4 13.7733 21.2133 12.5867 20.84 11.44C20.4667 10.2933 19.9333 9.28 19.24 8.4C18.5733 7.52 17.7467 6.82667 16.76 6.32C15.8 5.78667 14.7067 5.52 13.48 5.52C12.2 5.52 11.0667 5.8 10.08 6.36C9.12 6.89333 8.29333 7.61333 7.6 8.52C6.93333 9.4 6.42667 10.4133 6.08 11.56C5.73333 12.68 5.56 13.8267 5.56 15Z" fill="#5D534A"/>
<path d="M30.5694 20.64V15.8H42.6894V20.64H30.5694Z" fill="#5D534A"/>
<path d="M70.8091 21.88C70.8091 23.08 70.5691 24.1333 70.0891 25.04C69.6091 25.9467 68.9424 26.7067 68.0891 27.32C67.2624 27.9333 66.2891 28.4 65.1691 28.72C64.0757 29.04 62.9024 29.2 61.6491 29.2H47.9291V0.799999H63.1291C64.1157 0.799999 65.0091 1.01333 65.8091 1.44C66.6091 1.86667 67.2891 2.42667 67.8491 3.12C68.4091 3.78667 68.8357 4.56 69.1291 5.44C69.4491 6.29333 69.6091 7.16 69.6091 8.04C69.6091 9.42667 69.2624 10.7333 68.5691 11.96C67.8757 13.16 66.8624 14.0533 65.5291 14.64C67.1557 15.12 68.4357 15.9867 69.3691 17.24C70.3291 18.4667 70.8091 20.0133 70.8091 21.88ZM65.2491 20.84C65.2491 20.3333 65.1557 19.8533 64.9691 19.4C64.8091 18.92 64.5824 18.5067 64.2891 18.16C63.9957 17.8133 63.6491 17.5467 63.2491 17.36C62.8491 17.1467 62.4091 17.04 61.9291 17.04H53.4491V24.52H61.6491C62.1557 24.52 62.6224 24.4267 63.0491 24.24C63.5024 24.0533 63.8891 23.8 64.2091 23.48C64.5291 23.1333 64.7824 22.7333 64.9691 22.28C65.1557 21.8267 65.2491 21.3467 65.2491 20.84ZM53.4491 5.52V12.68H60.8091C61.7424 12.68 62.5291 12.36 63.1691 11.72C63.8357 11.08 64.1691 10.2 64.1691 9.08C64.1691 7.98667 63.8624 7.12 63.2491 6.48C62.6624 5.84 61.9291 5.52 61.0491 5.52H53.4491Z" fill="#5D534A"/>
<path d="M87.0366 12.88C85.4099 12.9067 83.9566 13.2267 82.6766 13.84C81.3966 14.4267 80.4766 15.32 79.9166 16.52V29.2H74.5566V8.24H79.4766V12.72C80.1966 11.28 81.1299 10.12 82.2766 9.24C83.4499 8.36 84.6766 7.92 85.9566 7.92C86.2499 7.92 86.4632 7.93333 86.5966 7.96C86.7566 7.96 86.9032 7.97333 87.0366 8V12.88Z" fill="#5D534A"/>
<path d="M95.4728 29.6C94.4595 29.6 93.5128 29.44 92.6328 29.12C91.7528 28.7733 90.9928 28.3067 90.3528 27.72C89.7128 27.1067 89.2061 26.4 88.8328 25.6C88.4861 24.8 88.3128 23.92 88.3128 22.96C88.3128 21.9733 88.5261 21.0667 88.9528 20.24C89.4061 19.3867 90.0195 18.6667 90.7928 18.08C91.5928 17.4933 92.5395 17.04 93.6328 16.72C94.7261 16.3733 95.9261 16.2 97.2328 16.2C98.1661 16.2 99.0728 16.28 99.9528 16.44C100.859 16.6 101.659 16.8267 102.353 17.12V15.92C102.353 14.5333 101.953 13.4667 101.153 12.72C100.379 11.9733 99.2195 11.6 97.6728 11.6C96.5528 11.6 95.4595 11.8 94.3928 12.2C93.3261 12.6 92.2328 13.1867 91.1128 13.96L89.4728 10.56C92.1661 8.77333 95.0728 7.88 98.1928 7.88C101.206 7.88 103.539 8.62667 105.193 10.12C106.873 11.5867 107.713 13.72 107.713 16.52V23.04C107.713 23.6 107.819 24 108.033 24.24C108.246 24.48 108.619 24.6133 109.153 24.64V29.2C108.646 29.3067 108.166 29.3733 107.713 29.4C107.286 29.4533 106.913 29.48 106.593 29.48C105.579 29.4533 104.806 29.2267 104.273 28.8C103.739 28.3467 103.406 27.7467 103.273 27L103.153 25.84C102.219 27.0667 101.086 28 99.7528 28.64C98.4195 29.28 96.9928 29.6 95.4728 29.6ZM96.9928 25.68C97.8995 25.68 98.7528 25.52 99.5528 25.2C100.379 24.88 101.019 24.4533 101.473 23.92C102.059 23.4667 102.353 22.96 102.353 22.4V20C101.713 19.76 101.019 19.5733 100.273 19.44C99.5261 19.28 98.8062 19.2 98.1128 19.2C96.7262 19.2 95.5928 19.52 94.7128 20.16C93.8328 20.7733 93.3928 21.56 93.3928 22.52C93.3928 23.4267 93.7395 24.1867 94.4328 24.8C95.1262 25.3867 95.9795 25.68 96.9928 25.68Z" fill="#5D534A"/>
<path d="M132.318 29.2H126.958V17.44C126.958 15.76 126.664 14.5333 126.078 13.76C125.491 12.9867 124.678 12.6 123.638 12.6C123.104 12.6 122.558 12.7067 121.998 12.92C121.438 13.1333 120.904 13.44 120.398 13.84C119.918 14.2133 119.478 14.6667 119.078 15.2C118.678 15.7333 118.384 16.32 118.198 16.96V29.2H112.838V8.24H117.678V12.12C118.451 10.7867 119.571 9.74667 121.038 9C122.504 8.25333 124.158 7.88 125.998 7.88C127.304 7.88 128.371 8.12 129.198 8.6C130.024 9.08 130.664 9.70667 131.118 10.48C131.571 11.2533 131.878 12.1333 132.038 13.12C132.224 14.1067 132.318 15.1067 132.318 16.12V29.2Z" fill="#5D534A"/>
<path d="M145.58 29.6C144.14 29.6 142.807 29.32 141.58 28.76C140.38 28.2 139.34 27.4267 138.46 26.44C137.58 25.4533 136.887 24.3067 136.38 23C135.9 21.6667 135.66 20.24 135.66 18.72C135.66 17.2 135.887 15.7867 136.34 14.48C136.82 13.1733 137.474 12.0267 138.3 11.04C139.127 10.0533 140.114 9.28 141.26 8.72C142.407 8.16 143.66 7.88 145.02 7.88C146.54 7.88 147.914 8.25333 149.14 9C150.394 9.74667 151.367 10.72 152.06 11.92V0H157.42V23.04C157.42 23.6 157.527 24 157.74 24.24C157.954 24.48 158.327 24.6133 158.86 24.64V29.2C157.847 29.3867 156.994 29.48 156.3 29.48C155.314 29.4533 154.54 29.2267 153.98 28.8C153.447 28.3733 153.114 27.7733 152.98 27L152.86 25.56C152.087 26.8933 151.047 27.9067 149.74 28.6C148.434 29.2667 147.047 29.6 145.58 29.6ZM146.98 25.04C147.487 25.04 148.007 24.96 148.54 24.8C149.074 24.6133 149.567 24.36 150.02 24.04C150.474 23.72 150.887 23.3467 151.26 22.92C151.634 22.4933 151.914 22.0267 152.1 21.52V16.52C151.647 15.3467 150.9 14.3733 149.86 13.6C148.847 12.8267 147.78 12.44 146.66 12.44C145.86 12.44 145.114 12.6133 144.42 12.96C143.754 13.3067 143.18 13.7867 142.7 14.4C142.22 14.9867 141.847 15.6667 141.58 16.44C141.314 17.2133 141.18 18.0133 141.18 18.84C141.18 19.72 141.327 20.5333 141.62 21.28C141.914 22.0267 142.314 22.68 142.82 23.24C143.354 23.8 143.967 24.24 144.66 24.56C145.38 24.88 146.154 25.04 146.98 25.04Z" fill="#5D534A"/>
</svg>
